<svg xmlns="http://www.w3.org/2000/svg" viewBox="0 0 28.68 12.16"><defs><style>.cls-1{fill:#fff;stroke:#fff;stroke-miterlimit:10;stroke-width:0.25px;}</style></defs><g id="Layer_2" data-name="Layer 2"><g id="Layer_1-2" data-name="Layer 1"><path class="cls-1" d="M4.35,12C2,12,.12,9.42.12,6.08S2,.12,4.35.12s4.23,2.62,4.23,6S6.72,12,4.35,12ZM4.35.71C2.47.71.87,3.17.87,6.08s1.6,5.37,3.48,5.37S7.83,9,7.83,6.08,6.24.71,4.35.71Z"/><path class="cls-1" d="M7.67,7.64a4.83,4.83,0,0,1-.17.68H28.26c.06-.22.11-.45.16-.68Z"/><path class="cls-1" d="M7.77,5.11c0,.22,0,.44.05.67H28.55c0-.23,0-.45-.05-.67Z"/><path class="cls-1" d="M7.82,6.37c0,.23,0,.46-.05.68H28.5c0-.22,0-.45.05-.68Z"/><path class="cls-1" d="M6.57,10.18a4.27,4.27,0,0,1-.66.68h21a6.21,6.21,0,0,0,.54-.68Z"/><path class="cls-1" d="M7.29,8.91A6.13,6.13,0,0,1,7,9.59H27.77a7,7,0,0,0,.3-.68Z"/><path class="cls-1" d="M7,2.57a4.76,4.76,0,0,1,.33.68H28.05a7,7,0,0,0-.3-.68Z"/><path class="cls-1" d="M7.5,3.84a5.06,5.06,0,0,1,.17.67H28.41c0-.23-.1-.45-.16-.67Z"/><path class="cls-1" d="M26.17.71A3.28,3.28,0,0,0,24.33.13h-20V.71Z"/><path class="cls-1" d="M4.35,11.45h0V12h20a3.32,3.32,0,0,0,1.85-.58Z"/><path class="cls-1" d="M5.91,1.3l0,0A4.73,4.73,0,0,1,6.57,2H27.4a4,4,0,0,0-.53-.68Z"/></g></g></svg>